<?xml version="1.0" standalone="no"?>
<!DOCTYPE svg PUBLIC "-//W3C//DTD SVG 20010904//EN"
 "http://www.w3.org/TR/2001/REC-SVG-20010904/DTD/svg10.dtd">
<svg version="1.0" xmlns="http://www.w3.org/2000/svg"
 width="1432.000000pt" height="1920.000000pt" viewBox="0 0 1432.000000 1920.000000"
 preserveAspectRatio="xMidYMid meet">

<g transform="translate(0.000000,1920.000000) scale(0.100000,-0.100000)"
fill="#000000" stroke="none">
<path d="M6107 19190 c-15 -5 -52 -25 -82 -45 -153 -101 -252 -116 -366 -56
-110 59 -183 47 -347 -58 -112 -72 -163 -92 -257 -100 -71 -7 -96 -15 -162
-49 -214 -113 -241 -125 -321 -132 -42 -4 -87 -12 -98 -18 -39 -21 -80 -78
-132 -185 -54 -108 -91 -152 -140 -163 -103 -21 -118 -28 -177 -88 -42 -42
-76 -89 -108 -153 l-48 -93 -42 0 c-64 0 -99 -28 -176 -143 -38 -58 -84 -118
-102 -133 -102 -92 -154 -161 -214 -284 -59 -117 -85 -198 -85 -259 0 -76 -31
-127 -135 -223 -99 -93 -111 -123 -103 -277 6 -111 35 -197 98 -299 58 -92 52
-138 -34 -253 -57 -75 -70 -115 -64 -198 7 -88 37 -146 133 -251 42 -47 92
-103 111 -126 l33 -40 -22 -45 c-16 -32 -22 -62 -22 -109 0 -83 34 -148 116
-222 154 -141 345 -335 337 -343 -3 -3 -45 8 -94 25 -182 63 -325 61 -463 -6
-41 -20 -93 -54 -116 -75 -108 -100 -174 -381 -154 -654 12 -168 89 -373 206
-549 143 -215 229 -264 525 -297 71 -8 112 -17 120 -27 8 -9 15 -69 19 -166 3
-83 11 -162 17 -176 7 -14 23 -81 36 -149 17 -82 35 -144 55 -182 16 -32 50
-106 75 -166 71 -172 113 -259 159 -331 24 -37 56 -88 72 -113 169 -266 580
-712 844 -917 47 -37 92 -75 99 -84 7 -10 51 -41 98 -70 47 -28 87 -55 90 -59
2 -4 -19 -10 -48 -13 -211 -21 -289 -31 -408 -52 -74 -14 -178 -31 -230 -39
-149 -22 -192 -32 -505 -106 -295 -71 -397 -99 -504 -141 -178 -70 -525 -250
-701 -364 -91 -59 -206 -133 -256 -163 -152 -93 -335 -249 -605 -516 -201
-199 -277 -281 -355 -386 -117 -156 -182 -255 -225 -342 -18 -34 -49 -88 -70
-119 -62 -91 -145 -255 -208 -410 -139 -339 -184 -445 -202 -474 -11 -18 -46
-112 -80 -210 -33 -99 -84 -225 -114 -283 l-54 -103 92 -100 c83 -90 172 -171
197 -180 6 -2 -12 -64 -39 -138 -81 -223 -211 -796 -211 -930 0 -30 -5 -95
-10 -145 -5 -49 -23 -256 -40 -460 -29 -338 -31 -396 -27 -670 5 -319 27 -544
67 -690 94 -336 408 -800 623 -919 65 -36 147 -62 282 -91 44 -9 113 -28 154
-41 65 -21 92 -24 238 -24 171 0 211 -8 245 -46 15 -17 15 -27 3 -94 -21 -122
-35 -308 -35 -472 0 -180 -16 -429 -29 -476 -5 -18 -15 -85 -21 -150 -20 -213
-70 -585 -100 -742 -35 -188 -60 -364 -60 -429 0 -42 3 -49 26 -60 40 -18 74
4 107 68 23 46 27 67 27 135 0 105 13 186 52 319 22 76 35 107 46 107 27 0 52
32 68 89 12 40 27 66 54 91 21 20 43 53 50 75 7 22 16 141 20 265 5 124 13
257 18 295 19 130 48 692 43 833 -2 62 1 89 13 107 34 52 115 70 221 50 39 -8
194 -19 345 -25 475 -19 682 -30 770 -40 155 -19 651 -51 915 -60 143 -5 312
-13 375 -19 63 -6 192 -13 285 -15 94 -3 244 -15 335 -27 91 -11 242 -24 335
-29 94 -5 229 -18 300 -30 76 -12 215 -25 335 -30 228 -9 283 -22 324 -71 14
-16 28 -46 32 -67 4 -20 21 -53 39 -73 18 -20 36 -47 40 -60 18 -58 107 -274
144 -347 104 -206 286 -424 521 -622 41 -35 138 -120 215 -190 189 -170 236
-207 271 -216 84 -21 102 -65 80 -197 -8 -51 -15 -121 -15 -157 0 -36 -5 -89
-11 -119 -5 -29 -10 -88 -10 -130 0 -85 18 -132 62 -164 26 -20 26 -20 57 2
65 46 69 73 84 562 1 37 8 73 15 82 22 26 68 30 186 17 105 -12 117 -11 211
10 281 63 472 152 570 263 67 76 235 423 284 587 21 69 48 148 60 175 26 58
45 198 63 460 13 190 13 244 8 825 -2 284 1 400 14 525 27 270 37 346 52 394
13 43 26 141 73 534 11 89 24 164 32 173 19 23 52 34 152 50 49 8 101 21 117
29 15 8 86 34 157 59 202 69 275 112 312 185 19 36 19 37 -5 107 -24 73 -44
235 -44 363 0 72 -24 292 -74 671 -14 102 -28 228 -31 280 -7 107 -39 349 -84
640 -17 107 -40 269 -51 360 -25 200 -52 340 -86 441 -27 83 -210 420 -303
557 -153 226 -224 288 -711 622 -113 77 -253 180 -311 228 -59 48 -162 120
-230 161 -275 164 -534 347 -647 455 -99 94 -161 218 -162 321 0 28 -5 95 -11
150 -19 165 0 201 155 298 122 77 261 192 471 394 141 136 212 212 255 275 33
47 106 142 162 211 57 69 111 140 120 159 43 84 120 265 163 383 26 72 68 177
93 235 70 165 110 296 126 415 8 61 22 144 31 185 40 185 55 299 55 421 0 125
11 189 33 189 7 0 46 -7 87 -16 139 -29 273 -3 348 69 39 37 92 137 116 216
20 69 21 223 1 351 -21 134 -19 288 7 480 18 142 20 175 9 235 -24 143 -102
250 -228 312 l-75 37 6 71 c14 143 37 248 64 280 63 76 88 178 59 248 -14 32
-88 107 -107 107 -16 0 -12 40 15 125 56 179 53 249 -11 313 l-34 34 41 46
c49 56 99 151 129 247 54 174 7 365 -115 473 l-46 41 15 46 c21 61 20 104 -4
171 -26 75 -85 151 -153 198 l-55 38 -7 97 c-15 207 -47 292 -138 360 -90 67
-116 107 -181 279 -44 116 -79 176 -120 207 -75 57 -305 151 -431 175 -33 7
-80 25 -104 41 -91 59 -145 74 -276 74 -129 0 -149 -6 -250 -75 -22 -15 -58
-33 -80 -39 -100 -27 -247 2 -355 70 -96 61 -131 71 -294 79 -142 7 -149 8
-170 33 -46 54 -91 59 -217 23 -126 -35 -135 -37 -165 -26 -15 6 -47 28 -69
49 -23 21 -51 43 -61 49 -52 27 -158 44 -324 50 l-177 7 -78 55 c-122 84 -226
114 -308 90z m143 -150 c0 -5 -15 -10 -33 -10 -17 0 -48 -4 -67 -10 -35 -10
-58 -1 -46 19 9 14 146 15 146 1z m-849 -110 c-22 -19 -41 -26 -41 -15 0 5 51
34 60 34 3 0 -6 -9 -19 -19z m1009 -56 c80 -19 144 -28 210 -29 78 -1 112 -7
190 -33 185 -62 314 -76 435 -48 54 13 61 13 69 -2 17 -30 56 -60 89 -66 18
-4 89 3 162 15 163 27 192 21 262 -52 85 -89 133 -107 363 -133 74 -9 144 -18
155 -21 14 -4 51 16 123 64 143 98 200 109 274 52 13 -9 46 -26 73 -36 28 -10
117 -51 199 -92 82 -41 181 -83 220 -93 l70 -18 3 -47 c4 -57 16 -81 89 -176
61 -80 93 -141 94 -176 0 -15 13 -29 42 -45 62 -35 77 -61 86 -158 10 -96 20
-119 103 -242 75 -109 99 -162 99 -215 0 -24 6 -45 13 -50 37 -22 50 -64 52
-161 1 -108 6 -120 64 -176 54 -51 91 -130 104 -221 21 -142 -21 -249 -118
-304 -77 -43 -80 -64 -27 -162 48 -88 50 -104 21 -161 -30 -59 -23 -130 24
-236 51 -114 50 -153 -4 -204 l-41 -39 -3 -102 c-6 -187 -40 -272 -160 -397
-167 -174 -217 -328 -181 -555 53 -336 60 -432 60 -875 1 -495 -6 -575 -85
-1007 -55 -299 -85 -403 -173 -588 -77 -163 -239 -433 -334 -560 -122 -161
-636 -665 -773 -757 -41 -28 -100 -57 -142 -69 -128 -39 -148 -53 -333 -250
-75 -79 -214 -175 -239 -165 -19 7 -22 21 -40 246 -26 312 -65 516 -114 596
-44 72 -148 121 -279 131 -156 11 -233 -22 -303 -130 -75 -116 -113 -282 -114
-498 0 -182 -3 -189 -75 -189 -93 0 -219 30 -436 105 -334 115 -446 177 -847
465 -209 150 -586 537 -769 790 -207 285 -266 378 -352 555 -73 148 -143 348
-198 565 l-52 205 -1 197 c-1 177 -3 199 -19 217 -31 34 -91 27 -219 -23 -141
-55 -160 -59 -237 -47 -82 13 -140 43 -198 100 -102 99 -165 245 -188 431 -20
167 -18 259 6 327 11 32 20 71 20 88 0 38 30 102 64 138 14 16 51 40 82 54
l55 25 222 -7 c214 -6 223 -6 255 15 49 31 64 75 56 168 -9 109 -30 150 -136
261 -200 211 -242 280 -258 433 -5 51 -10 100 -10 108 0 8 -32 57 -70 108 -84
112 -123 186 -140 266 -13 63 -9 96 21 195 32 107 25 238 -33 548 -11 60 -11
62 16 94 15 18 50 50 77 72 78 62 87 96 42 156 -61 79 -23 188 113 332 86 91
140 167 214 304 24 44 63 108 87 143 l44 63 49 -7 c27 -4 60 -4 74 0 33 8 62
71 77 166 11 70 15 78 60 122 48 47 165 111 268 146 41 14 59 28 89 67 69 91
159 136 385 191 40 10 93 33 128 55 127 83 172 96 249 73 l52 -15 92 70 c117
90 172 115 241 109 47 -4 57 -9 98 -53 45 -47 47 -48 96 -43 34 3 86 23 163
62 62 31 133 61 158 66 68 14 172 5 300 -26z m-1130 -29 c0 -2 -10 -10 -22
-16 -21 -11 -22 -11 -9 4 13 16 31 23 31 12z m-314 -74 c-6 -9 -66 -33 -66
-26 0 6 52 34 63 35 5 0 6 -4 3 -9z m4486 -466 c3 -14 1 -28 -3 -31 -5 -3 -9
-2 -9 3 0 4 -3 18 -6 31 -4 12 -2 22 4 22 5 0 12 -11 14 -25z m-6310 -2257
c-7 -7 -12 -8 -12 -2 0 14 12 26 19 19 2 -3 -1 -11 -7 -17z m12 -63 c3 -8 1
-15 -4 -15 -6 0 -10 7 -10 15 0 8 2 15 4 15 2 0 6 -7 10 -15z m6897 -1059 c67
-28 109 -96 123 -198 4 -23 11 -119 16 -213 7 -132 17 -206 45 -332 68 -314
47 -380 -155 -467 -36 -16 -89 -39 -117 -52 -29 -13 -59 -21 -67 -18 -8 3 -25
26 -37 51 -20 41 -23 69 -30 255 -4 115 -10 212 -13 215 -6 7 32 63 43 63 4 0
16 -18 26 -41 25 -54 70 -92 95 -79 107 57 104 293 -6 360 -41 26 -86 25 -134
-2 -51 -30 -60 -20 -70 79 -5 43 -13 91 -19 106 -37 96 20 220 124 268 48 22
130 24 176 5z m-6939 -269 c-16 -18 -37 -45 -45 -62 -9 -16 -16 -24 -17 -17
-1 34 80 146 88 122 3 -7 -9 -26 -26 -43z m-101 -204 c-8 -15 -10 -15 -11 -2
0 17 10 32 18 25 2 -3 -1 -13 -7 -23z m4174 -3329 c26 -9 65 -34 85 -54 32
-32 41 -51 59 -126 31 -129 79 -539 113 -954 5 -68 18 -150 27 -180 16 -52 16
-63 3 -145 -24 -140 -23 -866 1 -992 18 -97 51 -193 70 -205 21 -13 46 -9 68
13 25 25 21 66 -18 211 -25 90 -26 105 -30 440 -5 386 2 485 43 581 14 34 33
82 42 105 45 128 189 170 269 78 25 -28 31 -44 36 -107 8 -93 -6 -230 -38
-373 -54 -241 -85 -429 -85 -509 0 -107 16 -175 88 -392 99 -295 137 -547 113
-744 -13 -105 -57 -233 -129 -376 -24 -49 -55 -118 -68 -152 -13 -34 -57 -127
-98 -205 -54 -105 -76 -158 -81 -198 -10 -85 21 -229 181 -825 25 -93 70 -233
99 -310 91 -238 170 -435 223 -555 168 -381 221 -497 346 -755 78 -162 108
-235 113 -274 4 -36 17 -69 38 -101 46 -69 91 -181 131 -333 20 -72 67 -242
106 -377 39 -135 85 -317 104 -405 84 -406 114 -556 124 -635 16 -133 29 -213
61 -385 26 -138 33 -163 55 -182 33 -30 84 -30 112 0 46 49 54 116 22 186 -11
24 -20 54 -20 66 0 13 -16 89 -36 169 -23 97 -34 162 -32 198 l3 53 79 8 c75
7 221 49 353 101 l61 24 6 -22 c9 -34 7 -219 -5 -381 -25 -361 -85 -558 -235
-780 -63 -94 -109 -144 -224 -243 -151 -131 -236 -166 -445 -185 -200 -17
-236 -15 -313 24 -56 28 -102 69 -277 244 -216 215 -327 346 -362 425 -11 25
-53 97 -93 160 -40 63 -84 139 -97 169 -13 30 -62 108 -108 175 -46 67 -95
146 -109 176 -15 30 -42 79 -61 109 -19 29 -55 103 -80 165 -26 61 -64 147
-85 191 -67 138 -207 457 -233 530 -14 39 -55 149 -92 245 -67 175 -196 601
-215 715 -6 33 -31 150 -55 260 -47 208 -123 646 -151 870 -12 94 -18 220 -19
451 -1 176 -5 326 -8 332 -4 6 -14 87 -22 180 -15 182 -47 326 -90 412 -13 26
-65 103 -116 170 -100 135 -159 245 -159 300 0 79 -42 166 -159 335 -59 86
-137 236 -189 370 -22 55 -59 143 -82 195 -69 154 -91 245 -97 400 -4 111 -1
157 16 259 25 142 35 164 126 287 67 89 104 155 105 185 0 22 28 44 74 59 32
10 64 10 167 0 183 -19 215 -2 249 127 28 107 140 188 259 188 77 -1 129 -24
178 -79 17 -20 36 -36 42 -36 5 0 23 11 38 24 l28 24 -1 134 c-1 228 -20 422
-59 586 -39 165 -44 254 -24 430 17 158 72 345 116 395 49 54 172 73 268 41z
m-1659 -496 c4 -4 -6 -18 -22 -30 -59 -47 -96 -96 -166 -228 -84 -157 -98
-208 -99 -370 -1 -153 20 -243 76 -335 102 -164 203 -254 383 -342 2 0 -7 -13
-19 -27 -12 -14 -35 -55 -50 -91 -16 -38 -47 -87 -72 -114 -91 -97 -105 -155
-109 -436 -1 -164 1 -209 15 -250 9 -27 37 -136 62 -242 63 -265 70 -284 195
-488 115 -190 246 -427 274 -497 16 -41 29 -97 33 -145 6 -72 10 -83 48 -133
87 -114 248 -365 257 -400 16 -63 38 -1152 26 -1265 -6 -55 -7 -131 -3 -170 4
-38 6 -113 5 -166 -2 -115 16 -198 94 -431 41 -125 126 -476 126 -522 0 -12
-39 -5 -130 23 -52 17 -223 55 -380 85 -364 71 -620 134 -748 185 -125 50
-299 101 -462 136 -69 14 -181 44 -250 65 -69 22 -208 62 -310 89 -102 28
-223 63 -270 80 -47 16 -118 41 -158 55 -102 36 -252 62 -512 91 -124 13 -265
31 -314 40 -49 8 -141 15 -205 15 -222 0 -348 26 -396 80 -20 22 -20 36 -19
654 0 554 2 641 17 716 17 85 23 124 73 525 38 307 119 699 178 865 13 36 33
108 45 160 34 144 178 675 207 760 14 41 41 138 59 215 18 77 43 179 56 227
18 64 21 90 12 99 -38 38 -193 -142 -193 -225 0 -25 -68 -194 -120 -296 -39
-77 -164 -389 -199 -498 -17 -50 -39 -130 -51 -179 -11 -48 -36 -141 -55 -206
-73 -246 -195 -767 -195 -834 0 -13 -9 -32 -20 -43 -27 -27 -48 -21 -208 61
-73 38 -146 69 -161 69 -65 0 -208 36 -406 101 -115 38 -239 74 -274 79 -99
14 -133 58 -110 143 6 23 31 88 55 145 25 57 65 167 90 245 126 391 308 759
604 1217 48 74 102 160 121 190 53 86 169 220 343 398 125 127 174 171 230
202 39 21 132 82 206 135 81 58 189 122 270 162 74 37 191 98 260 135 69 38
157 80 195 94 39 14 79 31 90 37 104 56 221 105 385 162 107 37 215 78 240 90
157 78 338 107 754 121 109 3 231 10 270 14 86 10 322 8 332 -2z m164 -153 c0
-19 -4 -67 -10 -107 -37 -273 -51 -459 -41 -532 18 -130 52 -194 153 -291 53
-51 88 -92 88 -104 0 -25 -36 -51 -71 -51 -24 0 -99 45 -114 69 -3 6 -30 26
-58 45 -123 80 -228 243 -243 379 -10 95 11 250 44 322 64 136 214 328 242
310 6 -3 10 -21 10 -40z m415 -49 c100 -48 227 -92 405 -141 108 -29 175 -66
206 -112 15 -22 27 -68 39 -143 40 -265 16 -340 -98 -296 -154 59 -348 -60
-437 -270 -17 -39 -23 -44 -42 -39 -67 21 -133 69 -245 180 -114 113 -122 123
-128 169 -12 78 1 189 39 352 20 84 36 160 36 170 0 10 15 33 32 52 l33 33
-23 40 c-13 22 -20 44 -16 50 13 22 99 2 199 -45z m1894 -205 c5 -20 12 -69
16 -108 7 -86 13 -84 -111 -48 -93 27 -166 31 -201 12 -12 -7 -39 -37 -60 -67
-52 -75 -70 -76 -77 -8 -4 29 -7 78 -9 108 l-2 55 132 -4 132 -3 53 49 c89 84
109 86 127 14z m280 -578 c113 -102 264 -221 406 -321 124 -87 476 -300 650
-394 72 -39 164 -93 205 -121 90 -61 315 -287 411 -412 38 -49 93 -121 124
-160 95 -122 225 -343 250 -425 4 -14 27 -75 51 -136 82 -208 102 -349 134
-909 10 -180 59 -752 80 -935 5 -47 10 -141 10 -210 0 -69 5 -176 11 -239 6
-62 8 -115 5 -118 -3 -3 -64 13 -135 35 -193 61 -241 67 -385 51 -143 -17
-559 -16 -746 1 -69 6 -222 25 -340 42 -202 28 -227 29 -406 23 -105 -4 -219
-4 -252 0 l-62 7 0 106 c0 152 18 372 40 482 25 125 67 457 75 595 4 61 11
125 17 143 24 80 -46 151 -87 88 -17 -26 -48 -143 -71 -271 -8 -44 -23 -206
-34 -360 -26 -360 -54 -555 -80 -555 -15 0 -40 83 -54 180 -27 180 -109 478
-178 643 -42 101 -42 103 -42 222 1 108 4 132 37 243 21 68 37 125 37 127 0 2
-12 5 -27 7 -27 3 -26 5 22 32 49 28 52 33 108 161 85 194 125 313 146 438 45
254 37 419 -29 622 -22 66 -57 203 -79 305 -82 380 -82 412 3 775 18 77 38
173 45 213 11 69 25 112 37 112 3 0 49 -39 103 -87z m-6862 -2699 c45 -19 87
-34 93 -34 53 0 422 -110 538 -160 50 -22 58 -22 105 -10 46 12 51 11 64 -6
15 -21 11 -54 -19 -158 -11 -38 -23 -103 -28 -145 -5 -42 -18 -139 -29 -216
-47 -326 -55 -411 -61 -660 l-6 -260 32 -35 c18 -19 37 -47 42 -61 10 -24 34
-148 46 -237 18 -127 119 -213 313 -267 49 -13 136 -37 194 -54 59 -16 221
-52 360 -80 140 -28 286 -60 324 -71 144 -43 178 -51 340 -85 90 -19 200 -45
242 -58 43 -14 164 -43 268 -66 105 -22 248 -59 319 -81 166 -52 228 -68 553
-140 147 -32 336 -75 418 -95 269 -65 459 -106 530 -115 39 -5 129 -28 200
-51 119 -38 139 -42 242 -43 l112 -1 12 -65 c6 -36 41 -162 76 -280 36 -118
70 -233 75 -254 5 -22 40 -112 78 -202 61 -141 99 -258 100 -301 0 -15 -190
-17 -365 -3 -60 4 -173 13 -250 19 -77 6 -349 16 -605 21 -302 7 -502 16 -570
25 -58 8 -223 28 -367 45 -258 29 -348 35 -978 66 -176 8 -349 19 -385 24 -36
5 -189 14 -340 19 -322 12 -494 25 -680 52 -74 11 -247 26 -385 34 -433 25
-523 50 -638 175 -61 65 -113 151 -153 251 -14 35 -44 105 -67 154 -22 50 -67
171 -98 270 -31 99 -69 213 -84 253 -41 115 -65 303 -71 582 -7 264 7 581 30
690 8 36 14 97 15 135 1 95 37 431 51 475 6 19 22 109 35 200 14 91 32 199 40
240 8 41 21 118 29 170 22 137 111 393 147 422 26 22 46 18 156 -28z m9220
-336 c-3 -7 -5 -2 -5 12 0 14 2 19 5 13 2 -7 2 -19 0 -25z m-8327 -830 c0 -19
-2 -20 -10 -8 -13 19 -13 30 0 30 6 0 10 -10 10 -22z m0 -89 c0 -6 -4 -7 -10
-4 -5 3 -10 11 -10 16 0 6 5 7 10 4 6 -3 10 -11 10 -16z m-3 -106 c-2 -16 -4
-5 -4 22 0 28 2 40 4 28 2 -13 2 -35 0 -50z m6368 -392 c441 4 1238 -10 1267
-22 15 -6 35 -23 45 -38 28 -40 24 -169 -9 -311 -33 -140 -83 -445 -98 -595
-6 -60 -12 -182 -13 -269 -1 -96 -6 -161 -12 -163 -5 -1 -30 29 -54 68 -39 64
-44 77 -45 138 -1 82 -32 136 -104 182 -87 55 -170 74 -327 74 -139 0 -141 0
-270 -44 -89 -30 -148 -44 -187 -45 -95 -2 -120 28 -219 259 -28 66 -110 235
-181 374 -109 212 -178 368 -178 401 0 4 30 3 68 -2 37 -5 180 -8 317 -7z
m1750 -56 c69 -18 285 -119 285 -134 0 -14 -58 -60 -99 -77 -20 -9 -79 -27
-131 -40 -52 -13 -134 -36 -183 -51 -48 -14 -90 -24 -92 -21 -3 3 6 75 20 159
18 105 32 158 43 167 21 16 85 15 157 -3z m-412 -905 c-3 -11 -9 -20 -13 -20
-5 0 -6 9 -3 20 3 11 9 20 13 20 5 0 6 -9 3 -20z m-16 -72 c-3 -8 -6 -5 -6 6
-1 11 2 17 5 13 3 -3 4 -12 1 -19z m-4 -58 c-3 -12 -8 -19 -11 -16 -5 6 5 36
12 36 2 0 2 -9 -1 -20z m-532 -21 c57 -12 123 -41 134 -59 12 -20 -26 -49 -94
-71 -39 -13 -80 -35 -101 -54 -41 -38 -96 -67 -160 -83 -115 -30 -264 -62
-287 -62 -57 0 -120 118 -110 207 6 54 32 83 78 88 19 2 62 11 97 20 136 35
315 41 443 14z m149 -254 c46 -24 65 -54 65 -104 0 -86 -68 -148 -187 -170
-65 -12 -362 -94 -426 -117 -40 -15 -44 -15 -62 1 -19 17 -37 84 -42 159 l-3
40 95 23 c159 38 310 91 405 142 91 48 105 51 155 26z m241 -248 c-13 -13 -15
1 -4 30 7 17 8 17 11 -1 2 -10 -1 -23 -7 -29z m-155 -142 c65 -40 91 -91 75
-145 -23 -79 -148 -156 -296 -184 -69 -13 -278 -43 -340 -49 -15 -2 -21 8 -31
49 -6 29 -19 62 -28 75 -18 26 -21 90 -6 119 19 35 79 61 210 90 73 17 155 42
183 55 73 36 164 32 233 -10z m72 -457 c49 -75 36 -188 -29 -243 -48 -40 -209
-114 -277 -128 -38 -8 -86 -10 -120 -6 -31 3 -61 2 -66 -2 -21 -19 -44 -8 -60
29 -26 58 -65 293 -53 320 13 28 22 28 52 -3 18 -17 25 -20 25 -9 0 20 34 31
200 64 80 16 163 35 185 43 37 14 43 13 79 -7 21 -11 50 -38 64 -58z m-2658
-130 c0 -21 -11 -23 -28 -6 -13 13 -16 51 -5 62 9 8 32 -32 33 -56z m2350
-1832 c0 -2 -8 -10 -17 -17 -16 -13 -17 -12 -4 4 13 16 21 21 21 13z"/>
<path d="M6780 18627 c0 -12 7 -33 16 -45 14 -21 17 -21 52 -7 20 9 40 21 44
28 13 20 -30 47 -73 47 -34 0 -39 -3 -39 -23z"/>
<path d="M6205 18634 c-46 -11 -112 -38 -138 -57 -36 -25 -87 -94 -87 -119 0
-30 30 -22 143 37 58 30 114 55 125 55 10 0 27 -9 38 -21 18 -20 18 -21 -6
-40 -14 -10 -27 -19 -30 -19 -3 0 -14 -14 -24 -30 -23 -40 -14 -82 24 -114 37
-31 76 -43 166 -51 67 -6 73 -4 102 20 32 27 58 86 48 110 -7 19 -55 19 -81 1
-31 -21 -88 -28 -108 -14 -16 12 -16 17 3 75 30 86 24 121 -21 145 -37 19
-118 31 -154 22z"/>
<path d="M5603 18605 c-35 -15 -47 -41 -38 -78 10 -38 36 -43 58 -13 13 19 28
26 50 26 34 0 97 33 97 50 0 29 -112 39 -167 15z"/>
<path d="M7256 18570 c-42 -13 -75 -48 -82 -88 -6 -31 -3 -39 20 -59 15 -13
31 -23 36 -23 5 0 19 18 31 40 26 45 50 56 106 45 48 -9 73 -22 73 -40 0 -7
-20 -37 -45 -66 -46 -54 -59 -101 -31 -112 33 -13 199 35 274 79 58 34 54 56
-16 68 -38 7 -52 14 -52 26 0 25 -60 81 -115 106 -57 26 -156 38 -199 24z"/>
<path d="M8445 18353 c-39 -8 -110 -36 -127 -51 -60 -52 47 -112 118 -66 51
34 155 -6 140 -54 -12 -37 -47 -72 -97 -98 l-49 -24 15 -30 c8 -16 24 -31 35
-35 11 -4 78 -5 148 -3 95 2 135 -1 154 -11 24 -12 30 -11 71 17 85 59 67 85
-65 90 l-88 4 0 31 c0 64 -74 173 -138 206 -41 20 -87 30 -117 24z"/>
<path d="M4921 18334 c-124 -33 -198 -82 -231 -150 -26 -52 -21 -74 17 -74 19
0 38 12 64 40 40 43 59 50 59 22 0 -21 30 -52 49 -52 7 0 47 18 88 40 42 22
82 40 89 40 7 0 27 -15 44 -32 l31 -33 20 25 c17 20 20 35 17 81 -2 31 -12 68
-21 83 -16 24 -22 26 -95 25 -42 0 -101 -7 -131 -15z"/>
<path d="M5480 18159 c-35 -14 -98 -77 -121 -122 -11 -21 -23 -61 -26 -88 l-6
-49 30 0 c36 0 46 11 83 89 35 74 56 88 88 58 17 -16 36 -21 75 -22 50 0 52 1
55 28 9 76 -96 138 -178 106z"/>
<path d="M4051 17635 c-17 -20 -31 -40 -31 -44 0 -5 -26 -24 -57 -41 -162 -91
-233 -168 -217 -237 12 -50 53 -112 80 -119 34 -9 37 -3 19 39 -40 95 -10 138
128 181 101 31 135 60 161 138 17 48 17 58 5 84 -20 42 -50 42 -88 -1z"/>
<path d="M9328 17655 c-58 -19 -66 -30 -40 -58 10 -12 42 -56 69 -97 56 -83
122 -154 165 -176 36 -19 108 -3 108 24 0 23 -5 28 -83 96 -82 70 -84 88 -14
125 60 32 76 56 53 80 -23 22 -192 26 -258 6z"/>
<path d="M4619 17515 c-87 -32 -180 -113 -200 -174 -9 -25 -8 -43 0 -72 13
-43 41 -54 41 -16 0 31 51 109 91 140 82 63 125 54 154 -32 33 -99 67 -91 73
18 8 129 -48 177 -159 136z"/>
<path d="M9650 16869 c-75 -46 -81 -97 -20 -158 22 -22 40 -42 40 -44 0 -3
-16 -39 -36 -80 -44 -93 -44 -131 2 -135 25 -3 40 6 86 50 65 63 78 84 78 133
0 46 -20 84 -63 122 l-35 31 24 23 c13 13 25 35 26 49 3 22 -1 25 -32 28 -22
1 -48 -5 -70 -19z"/>
<path d="M3603 16643 c-13 -2 -37 -18 -54 -35 -26 -27 -30 -37 -27 -72 4 -34
0 -46 -24 -69 -25 -25 -28 -36 -28 -90 1 -80 34 -165 73 -187 24 -13 29 -13
38 0 5 8 7 33 3 55 -12 75 -11 78 23 86 104 21 127 103 47 164 l-35 26 26 30
c30 36 32 74 6 89 -11 5 -21 9 -23 9 -2 -1 -13 -4 -25 -6z"/>
<path d="M8314 15786 c-39 -17 -71 -58 -85 -108 -13 -51 -5 -89 27 -119 24
-22 32 -23 132 -21 167 4 321 -28 488 -102 79 -35 110 -38 142 -13 20 15 14
36 -24 88 -98 134 -267 215 -562 268 -35 7 -68 14 -75 16 -7 2 -26 -2 -43 -9z
m193 -132 c-3 -3 -12 -4 -19 -1 -8 3 -5 6 6 6 11 1 17 -2 13 -5z"/>
<path d="M3753 15673 c-3 -10 -12 -33 -19 -52 -18 -45 -17 -109 2 -146 22 -43
93 -132 110 -139 19 -7 103 30 111 49 10 27 -14 62 -61 90 l-45 27 26 22 c35
30 26 66 -31 123 -46 45 -82 55 -93 26z"/>
<path d="M5600 15539 c-201 -117 -248 -150 -318 -223 -67 -70 -153 -194 -187
-270 -23 -49 -48 -156 -37 -156 18 0 80 62 134 133 129 170 165 198 419 323
146 73 199 120 199 180 0 41 -27 104 -44 104 -6 -1 -81 -41 -166 -91z"/>
<path d="M8486 14722 c-3 -2 -43 -6 -89 -7 -100 -3 -148 -22 -183 -74 -30 -45
-32 -108 -4 -144 33 -42 104 -71 158 -64 143 19 212 79 216 188 1 37 -4 53
-22 72 -22 23 -66 40 -76 29z"/>
<path d="M7352 14684 c-27 -19 -68 -96 -77 -146 -4 -20 -2 -52 4 -70 6 -18 20
-85 31 -148 31 -175 81 -352 170 -610 86 -248 112 -306 178 -409 23 -35 44
-78 48 -96 15 -79 -55 -146 -184 -176 -90 -21 -276 -81 -345 -112 -59 -26 -82
-63 -74 -120 9 -67 50 -74 150 -27 35 17 72 30 81 30 30 0 313 79 371 103 137
58 189 125 188 245 -1 109 -38 198 -206 485 -81 140 -186 390 -222 531 -42
165 -55 258 -55 400 0 133 -10 154 -58 120z"/>
<path d="M5840 14583 c-30 -27 -34 -37 -38 -91 -5 -73 18 -120 72 -146 44 -21
119 -20 163 1 42 20 90 82 99 129 7 39 -10 89 -34 100 -22 9 -101 23 -173 30
-52 6 -59 4 -89 -23z"/>
<path d="M3394 14145 c-16 -9 -38 -29 -47 -44 l-17 -29 77 -42 c92 -50 178
-107 251 -167 63 -51 106 -56 158 -21 65 44 65 105 2 143 -17 10 -49 35 -71
57 -60 58 -175 110 -256 115 -47 3 -75 -1 -97 -12z"/>
<path d="M7964 12144 c-33 -71 -88 -107 -183 -125 -57 -10 -92 -9 -216 6 -164
19 -242 16 -357 -16 -76 -21 -276 -101 -418 -167 -178 -83 -360 -129 -548
-141 -114 -7 -125 -9 -148 -33 -53 -53 3 -99 125 -101 101 -3 290 20 351 41
30 11 80 31 110 45 30 14 111 49 180 76 69 27 164 66 212 86 48 20 124 45 170
57 75 19 96 20 213 12 72 -5 186 -9 255 -9 106 1 132 4 171 22 62 28 174 112
188 141 30 62 -7 162 -59 162 -14 0 -27 -17 -46 -56z"/>
<path d="M7589 11663 c-44 -68 -77 -77 -289 -75 -102 1 -204 4 -227 8 -32 5
-52 1 -87 -15 -49 -24 -63 -49 -47 -80 22 -39 71 -46 347 -46 l262 0 35 25
c53 38 79 76 85 126 4 37 1 49 -18 69 -13 14 -26 25 -30 25 -4 0 -18 -17 -31
-37z"/>
<path d="M12410 15904 c-194 -28 -252 -44 -348 -94 -181 -94 -353 -283 -399
-440 -24 -79 -21 -222 7 -338 l22 -93 177 -89 c98 -49 219 -103 268 -120 133
-46 133 -46 229 180 10 25 35 63 54 84 79 88 174 122 320 113 164 -10 300 -68
406 -172 79 -79 112 -147 124 -257 14 -140 -13 -214 -115 -313 -108 -105 -145
-121 -345 -151 -110 -16 -253 -28 -385 -33 -192 -8 -216 -11 -279 -35 -80 -30
-186 -99 -238 -153 -39 -41 -148 -274 -174 -372 -21 -82 -18 -159 9 -211 42
-85 124 -105 452 -114 224 -5 218 -8 225 107 l5 82 180 22 c344 43 605 100
855 186 322 110 437 175 595 332 97 96 117 122 158 205 133 267 134 661 2 935
-52 107 -106 171 -218 258 -168 131 -349 227 -527 282 -41 12 -142 46 -224 74
-154 54 -366 103 -521 121 -85 9 -260 12 -315 4z m174 -184 c373 -23 603 -71
872 -181 145 -60 193 -91 361 -232 70 -59 147 -123 170 -143 55 -46 88 -102
131 -227 33 -95 35 -110 36 -232 1 -170 -24 -338 -63 -419 -34 -72 -78 -134
-144 -205 -210 -224 -800 -380 -1440 -381 -143 0 -178 -9 -220 -59 -33 -39
-43 -89 -29 -144 7 -24 7 -46 2 -51 -5 -5 -37 -1 -77 8 -46 12 -100 16 -169
14 -135 -4 -138 -1 -131 112 6 100 31 174 88 259 70 105 94 118 272 145 136
22 310 40 572 61 102 8 202 42 339 113 194 102 268 209 295 427 31 254 -5 369
-163 528 -51 51 -87 76 -168 115 -201 97 -228 105 -373 110 -150 5 -222 -8
-320 -59 -33 -17 -81 -42 -108 -56 -57 -29 -72 -50 -96 -138 -27 -95 -34 -100
-115 -85 -124 23 -245 96 -290 173 -38 64 -41 106 -17 186 58 190 249 327 502
360 91 12 95 12 283 1z"/>
<path d="M1010 13113 c-79 -10 -269 -57 -343 -84 -44 -16 -129 -55 -191 -86
-93 -48 -125 -71 -197 -143 -194 -191 -245 -329 -269 -719 -9 -151 -9 -180 5
-230 31 -106 149 -191 265 -191 48 0 121 22 158 49 16 11 94 39 173 62 193 55
251 86 285 151 20 39 18 92 -5 112 -10 9 -31 45 -47 79 -55 124 -30 276 59
352 53 45 123 60 215 46 218 -34 364 -158 364 -310 0 -117 -42 -197 -149 -283
-70 -57 -343 -342 -370 -386 -9 -15 -38 -47 -65 -72 -45 -41 -52 -53 -73 -130
-12 -47 -35 -119 -50 -160 -33 -88 -44 -204 -25 -250 17 -40 56 -60 119 -60
70 0 152 28 270 93 111 61 199 97 235 97 45 0 67 31 82 110 17 86 30 104 89
119 59 15 181 109 287 219 129 136 154 170 222 304 60 117 83 185 115 346 14
67 14 243 0 302 -16 72 -78 220 -115 275 -76 116 -283 275 -418 322 -142 50
-230 64 -416 68 -96 2 -191 1 -210 -2z m257 -184 c171 -19 327 -80 523 -204
120 -76 181 -131 203 -184 8 -20 25 -60 37 -90 12 -30 24 -86 27 -125 8 -106
-16 -188 -99 -346 -97 -185 -130 -234 -207 -311 -36 -36 -79 -84 -96 -106 -38
-50 -85 -87 -205 -158 -167 -100 -161 -94 -154 -140 9 -63 -18 -89 -124 -121
-48 -15 -113 -40 -146 -56 -32 -16 -64 -27 -72 -24 -25 10 -18 115 12 172 52
98 169 226 289 316 99 75 287 247 334 307 57 72 99 162 112 240 9 50 8 75 -4
129 -8 37 -18 87 -21 110 -8 55 -38 114 -88 174 -47 57 -109 103 -220 165 -82
46 -85 47 -198 53 -162 9 -238 -2 -336 -50 -156 -76 -268 -224 -268 -354 1
-75 24 -131 88 -204 28 -33 46 -63 46 -79 0 -37 -55 -86 -125 -112 -33 -12
-82 -33 -109 -47 -28 -13 -59 -24 -70 -24 -79 0 -162 67 -196 158 -29 77 -33
294 -7 369 93 267 469 509 840 542 134 12 129 12 234 0z"/>
<path d="M11908 12967 c-106 -40 -163 -93 -211 -195 -25 -53 -29 -72 -24 -112
14 -121 121 -250 235 -284 135 -41 223 16 297 194 14 36 33 79 41 97 8 17 14
53 14 80 0 68 -58 159 -125 199 -57 33 -167 43 -227 21z m118 -216 c80 -36
104 -101 63 -167 -23 -39 -53 -49 -106 -39 -75 14 -163 77 -163 117 0 10 15
34 33 53 56 57 104 67 173 36z"/>
<path d="M1263 10736 c-93 -30 -153 -80 -195 -161 -9 -16 -25 -48 -37 -70 -12
-21 -21 -51 -21 -65 1 -106 182 -263 304 -263 180 0 361 225 316 392 -14 51
-77 124 -135 153 -51 27 -172 34 -232 14z m204 -191 c27 -27 33 -41 33 -74 0
-54 -36 -92 -113 -120 -123 -45 -177 -18 -177 86 0 57 9 84 42 119 16 18 30
21 101 21 79 0 83 -1 114 -32z"/>
</g>
</svg>
